<?xml version="1.0" encoding="UTF-8" standalone="no"?>
<svg
   xmlns:dc="http://purl.org/dc/elements/1.1/"
   xmlns:cc="http://creativecommons.org/ns#"
   xmlns:rdf="http://www.w3.org/1999/02/22-rdf-syntax-ns#"
   xmlns:svg="http://www.w3.org/2000/svg"
   xmlns="http://www.w3.org/2000/svg"
   xmlns:sodipodi="http://sodipodi.sourceforge.net/DTD/sodipodi-0.dtd"
   xmlns:inkscape="http://www.inkscape.org/namespaces/inkscape"
   version="1.1"
   id="Layer_1"
   x="0px"
   y="0px"
   width="50"
   height="38"
   viewBox="0 0 85.039 64.884853"
   enable-background="new 0 0 170.078 127.56"
   xml:space="preserve"
   inkscape:version="0.48.2 r9819"
   sodipodi:docname="camera.svg"><metadata
   id="metadata11"><rdf:RDF><cc:Work
       rdf:about=""><dc:format>image/svg+xml</dc:format><dc:type
         rdf:resource="http://purl.org/dc/dcmitype/StillImage" /><dc:title></dc:title></cc:Work></rdf:RDF></metadata><defs
   id="defs9" /><sodipodi:namedview
   pagecolor="#ffffff"
   bordercolor="#666666"
   borderopacity="1"
   objecttolerance="10"
   gridtolerance="10"
   guidetolerance="10"
   inkscape:pageopacity="0"
   inkscape:pageshadow="2"
   inkscape:window-width="1171"
   inkscape:window-height="651"
   id="namedview7"
   showgrid="false"
   inkscape:zoom="2.0143239"
   inkscape:cx="-17.124711"
   inkscape:cy="19"
   inkscape:window-x="140"
   inkscape:window-y="0"
   inkscape:window-maximized="0"
   inkscape:current-layer="Layer_1" />

<g
   id="g2990"
   transform="translate(8.8287293,3.0989251)"
   inkscape:export-filename="/Users/msh801/github/StickerBook/www/images/camera.png"
   inkscape:export-xdpi="83.998489"
   inkscape:export-ydpi="83.998489"><path
     style="fill-rule:evenodd"
     inkscape:connector-curvature="0"
     id="path3"
     d="m 6.7787329,7.9671821 h 4.2688541 c 2.845734,0 2.845734,-7.11458398 5.69197,-7.11458398 h 2.846238 0.0069 0.02113 0.03512 0.02562 0.02311 0.06174 0.03114 0.04313 0.07079 0.01612 0.09638 0.0015 0.108427 0.0012 0.107423 0.01361 0.09286 0.03863 0.06678 0.07531 0.02763 0.101401 0.02262 0.07631 0.08485 0.01159 0.09437 0.06426 0.02813 0.08987 0.06123 0.02663 0.08485 0.07582 0.0069 0.07983 0.07732 0.03162 0.04313 0.0723 0.06878 0.01911 0.04663 0.06274 0.06024 0.04064 0.01612 0.05368 0.05065 0.04663 0.04362 0.0063 0.03413 0.03663 0.03313 0.02912 0.02561 0.02213 0.01811 0.01411 0.01058 0 0.0063 0.0015 9.960819 c 2.845733,0 2.845733,7.11458398 5.691471,7.11458398 h 27.03587 c 0,-1.571201 1.274536,-2.845733 2.845743,-2.845733 h 2.846246 c 1.571177,0 2.845723,1.274532 2.845723,2.845733 h 4.268841 c 3.928526,0 7.114564,3.1860829 7.114564,7.1145859 v 42.688005 c 0,3.929 -3.186038,7.11508 -7.114564,7.11508 H 6.7787803 c -3.9285059,5e-4 -7.11458704,-3.18557 -7.11458704,-7.11457 V 15.082271 c 0,-3.929006 3.18608114,-7.1150889 7.11458704,-7.1150889 l 0,0 z M 56.581838,15.082271 c -11.786025,0 -21.344258,9.558234 -21.344258,21.344261 0,11.786031 9.55773,21.344251 21.344258,21.344251 11.786022,0 21.344266,-9.55772 21.344266,-21.344251 C 77.9256,24.640003 68.367356,15.082271 56.581838,15.082271 l 0,0 z m -39.842281,7.114585 h 8.537703 c 1.571201,0 2.845734,-1.274532 2.845734,-2.845733 v -1.422615 c 0,-1.571706 -1.274533,-2.845736 -2.845734,-2.845736 h -8.537703 c -1.571704,0 -2.845734,1.274533 -2.845734,2.845736 v 1.422615 c -5.02e-4,1.571201 1.27403,2.845733 2.845734,2.845733 z"
     clip-rule="evenodd" /><path
     style="fill-rule:evenodd"
     inkscape:connector-curvature="0"
     id="path5"
     d="m 56.581838,20.773741 c -8.643118,0 -15.652288,7.00917 -15.652288,15.652289 0,8.643113 7.00917,15.652793 15.652288,15.652793 8.643125,0 15.652287,-7.00968 15.652287,-15.652793 0,-8.643119 -7.009162,-15.652289 -15.652287,-15.652289 l 0,0 z"
     clip-rule="evenodd" /></g>
<rect
   style="fill:none;fill-opacity:1;stroke:none;stroke-width:2;stroke-linecap:round;stroke-miterlimit:4;stroke-opacity:1;stroke-dasharray:none"
   id="rect2988"
   width="87.367889"
   height="81.353439"
   x="-13.611665"
   y="-19.612162"
   transform="matrix(1.7074961,0,0,1.7074961,-0.16790329,0)"
   ry="0"
   inkscape:export-filename="/Users/msh801/github/StickerBook/story/images/camera.png"
   inkscape:export-xdpi="77.260002"
   inkscape:export-ydpi="77.260002" /><rect
   style="fill:#000000;fill-opacity:1;stroke:#000000;stroke-width:4.18061495;stroke-linecap:round;stroke-miterlimit:4;stroke-opacity:1;stroke-dasharray:none"
   id="rect3217"
   width="55.581749"
   height="55.581749"
   x="-236.5278"
   y="121.88656"
   inkscape:export-filename="/Users/msh801/github/StickerBook/www/images/stop.png"
   inkscape:export-xdpi="89.971565"
   inkscape:export-ydpi="89.971565" /><g
   id="g3995"
   inkscape:export-filename="/Users/msh801/github/StickerBook/www/images/restart.png"
   inkscape:export-xdpi="87.608902"
   inkscape:export-ydpi="87.608902"
   transform="translate(156.74745,88.643388)"><path
     sodipodi:open="true"
     sodipodi:end="5.570254"
     sodipodi:start="0.5445233"
     transform="matrix(-1.4906132,0,0,-1.4906132,-297.42481,109.67805)"
     d="m -77.44884,41.789919 c -4.799767,8.075247 -15.115801,10.657133 -23.04151,5.766804 -7.9257,-4.890329 -10.45977,-15.401004 -5.66001,-23.47625 4.79977,-8.075247 15.115804,-10.657133 23.041509,-5.766804 1.50197,0.926748 2.851838,2.087988 4.000306,3.441313"
     sodipodi:ry="17.093718"
     sodipodi:rx="16.777168"
     sodipodi:cy="32.935196"
     sodipodi:cx="-91.799599"
     id="path3223"
     style="fill:none;stroke:#000000;stroke-width:7.04596519;stroke-linecap:round;stroke-miterlimit:4;stroke-opacity:1;stroke-dasharray:none"
     sodipodi:type="arc" /><path
     style="fill:#000000;stroke:#000000;stroke-width:0.75490874px;stroke-linecap:butt;stroke-linejoin:miter;stroke-opacity:1"
     d="m -170.07512,52.325435 -17.06646,-17.066472 -3.9387,20.978613 z"
     id="path3993"
     inkscape:connector-curvature="0"
     sodipodi:nodetypes="cccc"
     inkscape:export-filename="/Users/msh801/github/StickerBook/www/images/play.png"
     inkscape:export-xdpi="63"
     inkscape:export-ydpi="63" /></g><g
   id="g4001"
   inkscape:export-filename="/Users/msh801/github/StickerBook/www/images/play.png"
   inkscape:export-xdpi="87.590652"
   inkscape:export-ydpi="87.590652"><path
     inkscape:export-ydpi="87.590652"
     inkscape:export-xdpi="87.590652"
     inkscape:export-filename="/Users/msh801/github/StickerBook/www/images/play.png"
     sodipodi:nodetypes="cccc"
     inkscape:connector-curvature="0"
     id="path3211"
     d="m -142.38274,80.890969 0,-57.94983 42.3038,28.92984 z"
     style="fill:#000000;stroke:#000000;stroke-width:1.81254125px;stroke-linecap:butt;stroke-linejoin:miter;stroke-opacity:1" /><rect
     y="22.034872"
     x="-151.11201"
     height="59.762363"
     width="59.762363"
     id="rect3999"
     style="fill:none;stroke:none" /></g><g
   id="g4007"
   inkscape:export-filename="/Users/msh801/github/StickerBook/www/images/pause.png"
   inkscape:export-xdpi="89.970001"
   inkscape:export-ydpi="89.970001"><g
     transform="translate(-83.146365,-99.475542)"
     inkscape:export-ydpi="89.970001"
     inkscape:export-xdpi="89.970001"
     inkscape:export-filename="/Users/msh801/github/StickerBook/www/images/pause.png"
     id="g3219"><rect
       style="fill:#000000;fill-opacity:1;stroke:#000000;stroke-width:3.49772882;stroke-linecap:round;stroke-miterlimit:4;stroke-opacity:1;stroke-dasharray:none"
       id="rect3213"
       width="11.863702"
       height="56.264633"
       x="-159.57652"
       y="123.16664"
       ry="0" /><rect
       ry="0"
       y="123.16664"
       x="-135.72684"
       height="56.264633"
       width="11.863702"
       id="rect3215"
       style="fill:#000000;fill-opacity:1;stroke:#000000;stroke-width:3.49772882;stroke-linecap:round;stroke-miterlimit:4;stroke-opacity:1;stroke-dasharray:none" /></g><rect
     y="21.942234"
     x="-254.74738"
     height="59.762363"
     width="59.762363"
     id="rect4005"
     style="fill:none;stroke:none" /></g></svg>