<?xml version="1.0" encoding="UTF-8" standalone="no"?>
<svg
   xmlns:dc="http://purl.org/dc/elements/1.1/"
   xmlns:cc="http://creativecommons.org/ns#"
   xmlns:rdf="http://www.w3.org/1999/02/22-rdf-syntax-ns#"
   xmlns:svg="http://www.w3.org/2000/svg"
   xmlns="http://www.w3.org/2000/svg"
   xmlns:sodipodi="http://sodipodi.sourceforge.net/DTD/sodipodi-0.dtd"
   xmlns:inkscape="http://www.inkscape.org/namespaces/inkscape"
   version="1.1"
   id="Layer_1"
   x="0px"
   y="0px"
   width="100px"
   height="100px"
   viewBox="0 0 100 100"
   enable-background="new 0 0 100 100"
   xml:space="preserve"
   inkscape:version="0.48.2 r9819"
   sodipodi:docname="tablet.svg"><metadata
   id="metadata9"><rdf:RDF><cc:Work
       rdf:about=""><dc:format>image/svg+xml</dc:format><dc:type
         rdf:resource="http://purl.org/dc/dcmitype/StillImage" /><dc:title></dc:title></cc:Work></rdf:RDF></metadata><defs
   id="defs7" /><sodipodi:namedview
   pagecolor="#ffffff"
   bordercolor="#666666"
   borderopacity="1"
   objecttolerance="10"
   gridtolerance="10"
   guidetolerance="10"
   inkscape:pageopacity="0"
   inkscape:pageshadow="2"
   inkscape:window-width="855"
   inkscape:window-height="525"
   id="namedview5"
   showgrid="false"
   inkscape:zoom="2.36"
   inkscape:cx="103.93397"
   inkscape:cy="41.680706"
   inkscape:window-x="333"
   inkscape:window-y="84"
   inkscape:window-maximized="0"
   inkscape:current-layer="Layer_1" />
<path
   d="m 80.999984,4.3519216 c 0,-2.4039999 -1.948,-4.351999441514 -4.351001,-4.351999566636 l -52.297999,-9.24787e-7 C 21.947983,-7.7258931e-5 19.999984,1.9479213 19.999984,4.3519216 l 0,91.2959954 c 9e-6,2.402993 1.947999,4.352011 4.351006,4.351994 l 52.299002,9e-6 c 2.402,1e-5 4.349987,-1.948002 4.350292,-4.351693 l -3e-4,-91.2963054 z m -38.652,2.6480005 17.408001,4e-7 c 0.701998,-2.2e-6 1.269998,1.2980001 1.269997,2.0000003 10e-7,0.7020008 -0.566998,1.9999992 -1.269998,2.0000012 l -17.407998,10e-7 c -0.702,0 -1.27,-1.298001 -1.269999,-2.0000018 -10e-7,-0.7020003 0.568002,-1.9999986 1.269998,-1.9999999 z m 7.803999,84.8780019 c -3.203997,-3e-6 -5.802,-2.598001 -5.801999,-5.803003 0,-3.205 2.598,-5.803999 5.802009,-5.80399 3.203998,-10e-7 5.801999,2.598999 5.80201,5.803989 -10e-7,3.204997 -2.598,5.803001 -5.802001,5.802999 z m 25.848001,-15.878001 -50.999999,-10e-7 -10e-7,-59.999999 50.999999,-2e-6 10e-7,60.000002 z"
   id="path3"
   inkscape:connector-curvature="0"
   style="fill:#000000"
   inkscape:export-filename="/Users/msh801/github/StickerBook/story/images/phone.png"
   inkscape:export-xdpi="44.259998"
   inkscape:export-ydpi="44.259998" />
</svg>